<svg xmlns="http://www.w3.org/2000/svg"
     viewBox="-10 -10 504 175"
     width="504" height="175">
  <path class="name"
        stroke="#FFF"
        stroke-width="0.8"
        fill="transparent"
        d="M142.72 9.0V65.0H137.52V9.0ZM137.76 59.16V65.0H131.36V64.2Q131.36 64.2 131.88 64.2Q132.4 64.2 132.4 64.2Q134.48 64.2 135.95999999999998 62.72Q137.44 61.24 137.52 59.16ZM137.76 14.839999999999996H137.52Q137.44 12.759999999999998 135.95999999999998 11.279999999999998Q134.48 9.799999999999997 132.4 9.799999999999997Q132.4 9.799999999999997 131.88 9.799999999999997Q131.36 9.799999999999997 131.36 9.799999999999997V9.0H137.76ZM142.48 59.16H142.72Q142.8 61.24 144.28 62.72Q145.76 64.2 147.84 64.2Q147.84 64.2 148.32 64.2Q148.8 64.2 148.88 64.2V65.0H142.48ZM142.48 14.839999999999996V9.0H148.88V9.799999999999997Q148.8 9.799999999999997 148.32 9.799999999999997Q147.84 9.799999999999997 147.84 9.799999999999997Q145.76 9.799999999999997 144.28 11.279999999999998Q142.8 12.759999999999998 142.72 14.839999999999996Z M182.95999999999998 66.12 158.16 9.479999999999997H164.95999999999998L184.56 58.519999999999996ZM182.95999999999998 66.12 182.24 60.519999999999996 203.51999999999998 9.240000000000002H208.32L186.64 57.88Q186.64 57.88 186.2 58.88Q185.76 59.88 185.16 61.32Q184.56 62.76 184.12 64.12Q183.68 65.48 183.68 66.12ZM201.28 14.759999999999998Q202.16 12.36 200.95999999999998 11.079999999999998Q199.76 9.799999999999997 198.24 9.799999999999997H197.51999999999998V9.0H213.6V9.799999999999997Q213.6 9.799999999999997 213.24 9.799999999999997Q212.88 9.799999999999997 212.88 9.799999999999997Q211.12 9.799999999999997 209.12 10.959999999999997Q207.12 12.119999999999997 205.84 14.839999999999996ZM167.12 14.759999999999998 160.48 14.839999999999996Q159.28 12.119999999999997 157.28 10.959999999999997Q155.28 9.799999999999997 153.44 9.799999999999997Q153.44 9.799999999999997 153.12 9.799999999999997Q152.79999999999998 9.799999999999997 152.79999999999998 9.799999999999997V9.0H170.79999999999998V9.799999999999997H170.07999999999998Q168.56 9.799999999999997 167.4 11.079999999999998Q166.24 12.36 167.12 14.759999999999998Z M241.52 7.8799999999999955 265.2 64.52H258.40000000000003L239.92000000000002 15.479999999999997ZM224.32000000000002 59.16Q223.76000000000002 60.76 224.16000000000003 61.879999999999995Q224.56 63.0 225.48000000000002 63.6Q226.4 64.2 227.36 64.2H228.08V65.0H212.0V64.2Q212.0 64.2 212.36 64.2Q212.72 64.2 212.72 64.2Q214.56 64.2 216.52 63.040000000000006Q218.48000000000002 61.88 219.76000000000002 59.16ZM241.52 7.8799999999999955 242.24 13.479999999999997 222.16000000000003 64.76H217.36L237.84 16.119999999999997Q237.84 16.119999999999997 238.28000000000003 15.119999999999997Q238.72000000000003 14.119999999999997 239.32000000000002 12.68Q239.92000000000002 11.240000000000002 240.36 9.879999999999999Q240.8 8.519999999999996 240.8 7.8799999999999955ZM252.8 43.16V45.56H227.76000000000002V43.16ZM256.40000000000003 59.16H262.96000000000004Q264.16 61.88 266.16 63.040000000000006Q268.16 64.2 270.0 64.2Q270.0 64.2 270.32 64.2Q270.64 64.2 270.64 64.2V65.0H252.64000000000001V64.2H253.36Q254.88 64.2 256.08000000000004 62.88Q257.28000000000003 61.56 256.40000000000003 59.16Z M279.84 7.799999999999997 326.32 57.4 327.03999999999996 66.12 280.56 16.6ZM280.0 59.32V65.0H273.36V64.2Q273.36 64.2 274.08000000000004 64.2Q274.8 64.2 274.88 64.2Q276.88 64.2 278.32 62.760000000000005Q279.76 61.32 279.76 59.32ZM283.44 59.32Q283.44 61.32 284.88 62.760000000000005Q286.32 64.2 288.32 64.2Q288.4 64.2 289.12 64.2Q289.84 64.2 289.84 64.2V65.0H283.2V59.32ZM279.84 7.799999999999997 283.36 12.280000000000001 283.44 65.0H279.76V17.799999999999997Q279.76 13.719999999999999 279.4 10.759999999999998Q279.03999999999996 7.799999999999997 279.03999999999996 7.799999999999997ZM327.03999999999996 9.0V55.879999999999995Q327.03999999999996 58.44 327.2 60.8Q327.36 63.16 327.56 64.64Q327.76 66.12 327.76 66.12H327.03999999999996L323.44 61.88V9.0ZM333.44 9.0V9.799999999999997Q333.44 9.799999999999997 332.72 9.799999999999997Q332.0 9.799999999999997 332.0 9.799999999999997Q330.0 9.799999999999997 328.56 11.2Q327.12 12.600000000000001 327.03999999999996 14.68H326.8V9.0ZM316.96 9.0H323.6V14.68H323.44Q323.36 12.600000000000001 321.96000000000004 11.2Q320.56 9.799999999999997 318.48 9.799999999999997Q318.48 9.799999999999997 317.76 9.799999999999997Q317.03999999999996 9.799999999999997 316.96 9.799999999999997Z M28.72 77.88 52.4 134.52H45.6L27.12 85.47999999999999ZM11.52 129.16Q10.96 130.76 11.36 131.88Q11.76 133.0 12.68 133.6Q13.6 134.2 14.56 134.2H15.280000000000001V135.0H-0.8V134.2Q-0.8 134.2 -0.44 134.2Q-0.08 134.2 -0.08 134.2Q1.76 134.2 3.7199999999999998 133.04Q5.68 131.88 6.96 129.16ZM28.72 77.88 29.44 83.47999999999999 9.36 134.76H4.5600000000000005L25.04 86.12Q25.04 86.12 25.48 85.12Q25.92 84.12 26.520000000000003 82.68Q27.12 81.24000000000001 27.560000000000002 79.88Q28.0 78.52 28.0 77.88ZM40.0 113.16V115.56H14.96V113.16ZM43.6 129.16H50.160000000000004Q51.36 131.88 53.36 133.04Q55.36 134.2 57.2 134.2Q57.2 134.2 57.52 134.2Q57.84 134.2 57.84 134.2V135.0H39.84V134.2H40.56Q42.08 134.2 43.28 132.88Q44.480000000000004 131.56 43.6 129.16Z M73.12 79.0V135.0H67.92V79.0ZM94.72 132.52V135.0H72.88V132.52ZM99.6 122.03999999999999 94.96000000000001 135.0H81.68L84.56 132.52Q88.8 132.52 91.47999999999999 131.2Q94.16 129.88 95.84 127.47999999999999Q97.52000000000001 125.08 98.80000000000001 122.03999999999999ZM68.16 129.16V135.0H61.76V134.2Q61.76 134.2 62.28 134.2Q62.8 134.2 62.8 134.2Q64.88 134.2 66.36 132.72Q67.84 131.24 67.92 129.16ZM68.16 84.84H67.92Q67.84 82.75999999999999 66.36 81.28Q64.88 79.8 62.8 79.8Q62.8 79.8 62.28 79.8Q61.76 79.8 61.76 79.8V79.0H68.16ZM72.88 84.84V79.0H79.28V79.8Q79.2 79.8 78.72 79.8Q78.24000000000001 79.8 78.24000000000001 79.8Q76.16 79.8 74.68 81.28Q73.2 82.75999999999999 73.12 84.84Z M148.32 77.88Q148.32 77.88 148.32 78.24Q148.32 78.6 148.32 78.6L112.64 135.0H106.72V134.28L140.32 81.32H107.84V78.92H139.84Q141.44 78.92 143.24 78.75999999999999Q145.04 78.6 146.44 78.36Q147.84 78.12 148.32 77.88ZM148.88 132.6 148.4 135.0H111.84V132.6ZM151.28 122.68 148.64 135.0H138.08L138.64 133.0L139.52 132.6Q144.0 132.6 146.68 129.72Q149.36 126.84 150.48000000000002 122.68ZM113.36 81.32Q111.36 81.4 110.0 82.76Q108.64 84.12 108.64 86.12V87.56H107.84V81.08H113.36ZM107.84 77.47999999999999Q108.64 77.8 110.28 78.12Q111.92 78.44 113.92 78.68Q115.92 78.92 117.6 78.92L107.84 79.8Z M182.72 77.88 206.4 134.52H199.6L181.12 85.47999999999999ZM165.52 129.16Q164.96 130.76 165.36 131.88Q165.76 133.0 166.68 133.6Q167.6 134.2 168.56 134.2H169.28V135.0H153.2V134.2Q153.2 134.2 153.56 134.2Q153.92 134.2 153.92 134.2Q155.76 134.2 157.72 133.04Q159.68 131.88 160.96 129.16ZM182.72 77.88 183.44 83.47999999999999 163.36 134.76H158.56L179.04 86.12Q179.04 86.12 179.48000000000002 85.12Q179.92000000000002 84.12 180.52 82.68Q181.12 81.24000000000001 181.56 79.88Q182.0 78.52 182.0 77.88ZM194.0 113.16V115.56H168.96V113.16ZM197.6 129.16H204.16Q205.36 131.88 207.36 133.04Q209.36 134.2 211.2 134.2Q211.2 134.2 211.51999999999998 134.2Q211.84 134.2 211.84 134.2V135.0H193.84V134.2H194.56Q196.07999999999998 134.2 197.28 132.88Q198.48000000000002 131.56 197.6 129.16Z M270.24 77.88 270.88 83.24000000000001 250.8 127.96Q250.8 127.96 250.20000000000002 129.32Q249.60000000000002 130.68 248.96 132.56Q248.32 134.44 248.08 136.12H247.28L246.16000000000003 131.08ZM221.04000000000002 129.16V135.0H212.16V134.2Q212.24 134.2 212.84 134.2Q213.44 134.2 213.44 134.2Q215.6 134.2 217.28 132.88Q218.96 131.56 219.28 129.16ZM223.36 130.44Q223.36 130.52 223.36 130.60000000000002Q223.36 130.68 223.36 130.84Q223.36 132.12 224.28000000000003 133.2Q225.20000000000002 134.28 226.48000000000002 134.28H227.68V135.0H222.8V130.44ZM225.28 77.88H226.08L227.68 82.6L222.96 135.0H218.64000000000001ZM226.08 77.88 249.12 127.72 247.28 136.12 224.56 86.84ZM270.96000000000004 77.88 277.84000000000003 135.0H271.6L267.2 86.52L270.24 77.88ZM275.44 129.16H277.12Q277.52 131.56 279.2 132.88Q280.88 134.2 282.96000000000004 134.2Q282.96000000000004 134.2 283.6 134.2Q284.24 134.2 284.24 134.2V135.0H275.44ZM271.2 130.44H271.76V135.0H266.88V134.28H268.08000000000004Q269.44 134.28 270.32 133.2Q271.2 132.12 271.2 130.84Q271.2 130.68 271.2 130.60000000000002Q271.2 130.52 271.2 130.44Z M319.76 77.88Q328.32 77.88 334.79999999999995 81.52Q341.28 85.16 344.91999999999996 91.72Q348.56 98.28 348.56 107.0Q348.56 115.72 344.91999999999996 122.28Q341.28 128.84 334.79999999999995 132.48000000000002Q328.32 136.12 319.76 136.12Q311.28 136.12 304.79999999999995 132.48000000000002Q298.32 128.84 294.68 122.28Q291.04 115.72 291.04 107.0Q291.04 98.28 294.68 91.72Q298.32 85.16 304.79999999999995 81.52Q311.28 77.88 319.76 77.88ZM319.76 133.72Q326.56 133.72 331.64 130.36Q336.72 127.0 339.56 121.0Q342.4 115.0 342.4 107.0Q342.4 99.0 339.56 93.0Q336.72 87.0 331.64 83.64Q326.56 80.28 319.76 80.28Q313.04 80.28 307.96000000000004 83.64Q302.88 87.0 300.03999999999996 93.0Q297.2 99.0 297.2 107.0Q297.2 115.0 300.03999999999996 121.0Q302.88 127.0 307.96000000000004 130.36Q313.04 133.72 319.76 133.72Z M367.6 79.0H378.88Q382.48 79.0 385.40000000000003 80.03999999999999Q388.32000000000005 81.08 390.32000000000005 83.03999999999999Q392.32000000000005 85.0 393.40000000000003 87.75999999999999Q394.48 90.52 394.48 94.03999999999999Q394.48 97.88 392.68 101.4Q390.88 104.92 387.8 107.12Q384.72 109.32 380.88 109.32Q382.24 109.88 383.84000000000003 111.6Q385.44 113.32 386.64000000000004 114.92Q386.64000000000004 114.92 387.72 116.47999999999999Q388.8 118.03999999999999 390.44000000000005 120.28Q392.08000000000004 122.52 393.76 124.68Q395.44 126.84 396.64000000000004 128.12Q398.24 129.88 399.84000000000003 131.24Q401.44 132.6 403.32000000000005 133.39999999999998Q405.20000000000005 134.2 407.52000000000004 134.2V135.0H403.12Q399.44 135.0 396.76 133.88Q394.08000000000004 132.76 392.24 131.12Q390.40000000000003 129.48 389.12 127.96Q388.88 127.64 387.8 126.12Q386.72 124.6 385.24 122.47999999999999Q383.76 120.36 382.32 118.28Q380.88 116.2 379.84000000000003 114.72Q378.8 113.24 378.64000000000004 113.0Q377.12 111.0 375.28 109.32Q373.44 107.64 371.28000000000003 107.64V106.84Q371.28000000000003 106.84 372.52 106.88Q373.76 106.92 375.52000000000004 106.84Q377.6 106.75999999999999 380.08000000000004 106.19999999999999Q382.56 105.64 384.72 103.88Q386.88 102.12 388.0 98.52Q388.24 97.64 388.4 96.32Q388.56 95.0 388.48 93.72Q388.40000000000003 88.28 385.72 85.03999999999999Q383.04 81.8 378.56 81.56Q376.32 81.4 373.96000000000004 81.44Q371.6 81.47999999999999 370.0 81.47999999999999Q368.40000000000003 81.47999999999999 368.40000000000003 81.47999999999999Q368.40000000000003 81.4 368.20000000000005 80.8Q368.0 80.19999999999999 367.8 79.6Q367.6 79.0 367.6 79.0ZM368.64000000000004 79.0V135.0H363.44V79.0ZM363.68 129.16V135.0H357.28000000000003V134.2Q357.28000000000003 134.2 357.8 134.2Q358.32 134.2 358.32 134.2Q360.40000000000003 134.2 361.88 132.72Q363.36 131.24 363.44 129.16ZM363.68 84.84H363.44Q363.36 82.75999999999999 361.88 81.28Q360.40000000000003 79.8 358.32 79.8Q358.32 79.8 357.8 79.8Q357.28000000000003 79.8 357.28000000000003 79.8V79.0H363.68ZM368.40000000000003 129.16H368.64000000000004Q368.64000000000004 131.24 370.16 132.72Q371.68 134.2 373.76 134.2Q373.76 134.2 374.24 134.2Q374.72 134.2 374.72 134.2V135.0H368.40000000000003Z M435.36 77.88 459.04 134.52H452.24000000000007L433.76000000000005 85.47999999999999ZM418.16 129.16Q417.6 130.76 418.0 131.88Q418.40000000000003 133.0 419.32000000000005 133.6Q420.24000000000007 134.2 421.20000000000005 134.2H421.9200000000001V135.0H405.84000000000003V134.2Q405.84000000000003 134.2 406.20000000000005 134.2Q406.56000000000006 134.2 406.56000000000006 134.2Q408.40000000000003 134.2 410.36 133.04Q412.32000000000005 131.88 413.6 129.16ZM435.36 77.88 436.08000000000004 83.47999999999999 416.00000000000006 134.76H411.20000000000005L431.68000000000006 86.12Q431.68000000000006 86.12 432.12000000000006 85.12Q432.56000000000006 84.12 433.1600000000001 82.68Q433.76000000000005 81.24000000000001 434.20000000000005 79.88Q434.64000000000004 78.52 434.64000000000004 77.88ZM446.64000000000004 113.16V115.56H421.6V113.16ZM450.24000000000007 129.16H456.80000000000007Q458.00000000000006 131.88 460.00000000000006 133.04Q462.00000000000006 134.2 463.84000000000003 134.2Q463.84000000000003 134.2 464.16 134.2Q464.48 134.2 464.48 134.2V135.0H446.48V134.2H447.20000000000005Q448.72 134.2 449.9200000000001 132.88Q451.12000000000006 131.56 450.24000000000007 129.16Z" />
</svg>
